<svg width="27" height="28" viewBox="0 0 27 28" fill="none" xmlns="http://www.w3.org/2000/svg">
<g opacity="0.5" clip-path="url(#clip0_0_797)">
<path d="M24.98 12.0762L20.2956 11.3545L17.4409 6.69098C17.291 6.44688 17.0807 6.24559 16.8303 6.10658C16.5799 5.96758 16.2978 5.89556 16.0114 5.8975L4.04727 5.99282C3.70206 5.99574 3.36634 6.10611 3.08674 6.3086C2.80715 6.51109 2.59757 6.79565 2.48713 7.12272L1.12756 11.1543V20.4235H3.98193C4.20383 21.1448 4.65112 21.7759 5.25815 22.2243C5.86517 22.6726 6.59995 22.9146 7.3546 22.9146C8.10926 22.9146 8.84403 22.6726 9.45106 22.2243C10.0581 21.7759 10.5054 21.1448 10.7273 20.4235H16.0209C16.2428 21.1448 16.6901 21.7759 17.2971 22.2243C17.9041 22.6726 18.6389 22.9146 19.3935 22.9146C20.1482 22.9146 20.883 22.6726 21.49 22.2243C22.097 21.7759 22.5443 21.1448 22.7662 20.4235H26.0357V13.3071C26.0371 13.0093 25.9311 12.721 25.7372 12.4949C25.5434 12.2689 25.2746 12.1202 24.98 12.0762ZM11.9211 7.59058L16.0246 7.55789L18.3131 11.2965L11.9211 11.2943V7.59058ZM4.06055 7.65326L10.2606 7.60386V11.2937L2.83382 11.2911L4.06055 7.65326ZM7.3546 21.2537C6.98513 21.2537 6.62394 21.1442 6.31674 20.9389C6.00953 20.7336 5.77009 20.4419 5.62869 20.1005C5.4873 19.7592 5.4503 19.3836 5.52239 19.0212C5.59447 18.6588 5.77239 18.3259 6.03365 18.0647C6.29491 17.8034 6.62777 17.6255 6.99015 17.5534C7.35253 17.4813 7.72815 17.5183 8.0695 17.6597C8.41085 17.8011 8.70261 18.0406 8.90788 18.3478C9.11315 18.655 9.22271 19.0161 9.22271 19.3856C9.22217 19.8809 9.02517 20.3558 8.67495 20.706C8.32473 21.0562 7.84989 21.2532 7.3546 21.2537ZM19.3935 21.2537C19.0241 21.2537 18.6629 21.1442 18.3557 20.9389C18.0485 20.7336 17.809 20.4419 17.6676 20.1005C17.5262 19.7592 17.4892 19.3836 17.5613 19.0212C17.6334 18.6588 17.8113 18.3259 18.0726 18.0647C18.3339 17.8034 18.6667 17.6255 19.0291 17.5534C19.3915 17.4813 19.7671 17.5183 20.1084 17.6597C20.4498 17.8011 20.7416 18.0406 20.9468 18.3478C21.1521 18.655 21.2617 19.0161 21.2617 19.3856C21.2611 19.8809 21.0641 20.3558 20.7139 20.706C20.3637 21.0562 19.8888 21.2532 19.3935 21.2537ZM24.3752 18.7629H22.8661C22.7202 17.9481 22.2924 17.2105 21.6576 16.6793C21.0228 16.148 20.2213 15.8569 19.3935 15.8569C18.5658 15.8569 17.7643 16.148 17.1295 16.6793C16.4947 17.2105 16.0669 17.9481 15.921 18.7629H10.8271C10.6812 17.9481 10.2535 17.2105 9.61863 16.6793C8.98381 16.148 8.18239 15.8569 7.3546 15.8569C6.52682 15.8569 5.72539 16.148 5.09057 16.6793C4.45576 17.2105 4.02798 17.9481 3.88209 18.7629H2.78811V12.9524L19.9398 12.9798L24.3752 13.6632V18.7629Z" fill="white" stroke="white" stroke-width="0.553515"/>
</g>
<defs>
<clipPath id="clip0_0_797">
<rect width="26.5687" height="26.5687" fill="white" transform="translate(0.297241 0.496948)"/>
</clipPath>
</defs>
</svg>
