<svg width="28" height="28" viewBox="0 0 28 28" fill="none" xmlns="http://www.w3.org/2000/svg">
<path d="M25.3137 0.800293H2.57729C1.51897 0.800293 0.661133 1.65813 0.661133 2.71645V25.4528C0.661133 26.5112 1.51897 27.369 2.57729 27.369H14.8536V17.0944H11.4028V13.0727H14.8536V10.1131C14.8536 6.68091 16.9489 4.8128 20.0106 4.8128C21.4769 4.8128 22.7371 4.92206 23.1044 4.97091V8.55815H20.9933C19.3275 8.55815 19.005 9.3497 19.005 10.5114V13.0727H22.9877L22.4687 17.0944H19.005V27.369H25.3137C26.372 27.369 27.2298 26.5112 27.2298 25.4528V2.71645C27.2298 1.65813 26.372 0.800293 25.3137 0.800293V0.800293Z" fill="white"/>
</svg>
