<svg width="27" height="28" viewBox="0 0 27 28" fill="none" xmlns="http://www.w3.org/2000/svg">
<g opacity="0.5">
<path d="M24.4133 23.7446H2.27273V21.5305H3.37976V4.92508C3.37976 4.63148 3.49639 4.3499 3.704 4.1423C3.91161 3.93469 4.19318 3.81805 4.48679 3.81805H19.9852C20.2788 3.81805 20.5604 3.93469 20.768 4.1423C20.9756 4.3499 21.0922 4.63148 21.0922 4.92508V10.4602H23.3063V21.5305H24.4133V23.7446ZM18.8782 21.5305H21.0922V12.6743H14.45V21.5305H16.6641V14.8883H18.8782V21.5305ZM18.8782 10.4602V6.03211H5.59382V21.5305H12.236V10.4602H18.8782ZM7.80787 12.6743H10.0219V14.8883H7.80787V12.6743ZM7.80787 17.1024H10.0219V19.3165H7.80787V17.1024ZM7.80787 8.24617H10.0219V10.4602H7.80787V8.24617Z" fill="white"/>
</g>
</svg>
