<svg width="27" height="28" viewBox="0 0 27 28" fill="none" xmlns="http://www.w3.org/2000/svg">
<path d="M25.937 1.8037C25.2681 1.13466 24.4666 0.800293 23.5328 0.800293H3.77906C2.84496 0.800293 2.04367 1.13478 1.37463 1.8037C0.705706 2.47244 0.371338 3.27386 0.371338 4.20777V23.9613C0.371338 24.8951 0.705646 25.6967 1.37463 26.3655C2.04367 27.0344 2.84514 27.369 3.77906 27.369H23.5326C24.4662 27.369 25.2679 27.0344 25.9368 26.3655C26.6058 25.6967 26.9399 24.8951 26.9399 23.9613V4.20777C26.9399 3.27368 26.6058 2.47268 25.937 1.8037ZM9.91111 10.3742C10.9546 9.36537 12.2087 8.8607 13.6733 8.8607C15.1491 8.8607 16.4088 9.36537 17.4526 10.3742C18.4964 11.3833 19.0179 12.6029 19.0179 14.0327C19.0179 15.4624 18.4964 16.682 17.4526 17.6908C16.4088 18.7001 15.1495 19.2047 13.6733 19.2047C12.2088 19.2047 10.9548 18.6996 9.91111 17.6908C8.86735 16.6819 8.34553 15.4624 8.34553 14.0327C8.34553 12.6029 8.86735 11.3833 9.91111 10.3742ZM23.9307 23.2524C23.9307 23.552 23.8266 23.8027 23.6192 24.0046C23.4112 24.2064 23.1637 24.3073 22.8751 24.3073H4.38455C4.08477 24.3073 3.83377 24.2064 3.63214 24.0046C3.43021 23.8031 3.32934 23.552 3.32934 23.2524V12.0434H5.76819C5.53766 12.7699 5.42237 13.5254 5.42237 14.3094C5.42237 16.5239 6.22948 18.4119 7.84389 19.9747C9.45848 21.537 11.4015 22.3184 13.6732 22.3184C15.1723 22.3184 16.556 21.9608 17.8249 21.2459C19.0934 20.5306 20.096 19.5593 20.8345 18.331C21.5726 17.1029 21.9417 15.7622 21.9417 14.3094C21.9417 13.5254 21.8259 12.7702 21.5954 12.0434H23.9308V23.2525H23.9307V23.2524ZM23.9307 7.80549C23.9307 8.13992 23.8154 8.42249 23.5844 8.65308C23.3538 8.88384 23.0714 8.99908 22.7368 8.99908H19.7272C19.393 8.99908 19.1102 8.88378 18.8796 8.65308C18.649 8.42249 18.5338 8.13992 18.5338 7.80549V4.9517C18.5338 4.62878 18.649 4.34918 18.8796 4.11272C19.1102 3.87637 19.393 3.75805 19.7272 3.75805H22.7368C23.0714 3.75805 23.3539 3.87631 23.5844 4.11272C23.8153 4.34918 23.9307 4.62878 23.9307 4.9517V7.80549Z" fill="white"/>
</svg>
