<svg width="28" height="28" viewBox="0 0 28 28" fill="none" xmlns="http://www.w3.org/2000/svg">
<g opacity="0.5">
<path d="M22.0312 18.6898L23.4684 19.1389V17.6331V15.7072V15.0937L22.9481 14.7685L15.7648 10.2789V5.59622C15.7648 4.18558 14.624 3.04477 13.2134 3.04477C11.8027 3.04477 10.6619 4.18558 10.6619 5.59622V10.2789L3.47858 14.7685L2.95828 15.0937V15.7072V17.6331V19.1389L4.39551 18.6898L10.6619 16.7315V19.9685L9.1788 21.0808L8.73599 21.4129V21.9664V23.4108V24.8785L10.1471 24.4753L13.2134 23.5992L16.2796 24.4753L17.6907 24.8785V23.4108V21.9664V21.4129L17.2479 21.0808L15.7648 19.9685V16.7315L22.0312 18.6898Z" fill="#1C1853" stroke="white" stroke-width="2.21406"/>
</g>
</svg>
