<svg width="27" height="28" viewBox="0 0 27 28" fill="none" xmlns="http://www.w3.org/2000/svg">
<path d="M23.8717 9.94918L17.284 8.99178L14.3392 3.0216C14.2587 2.85814 14.1264 2.72582 13.9629 2.64538C13.553 2.44301 13.0548 2.61166 12.8499 3.0216L9.90498 8.99178L3.31729 9.94918C3.13567 9.97513 2.96962 10.0608 2.84248 10.1905C2.68878 10.3485 2.60409 10.561 2.60701 10.7814C2.60993 11.0018 2.70022 11.212 2.85805 11.3658L7.62433 16.0128L6.49827 22.5745C6.47187 22.7271 6.48876 22.8841 6.54703 23.0277C6.6053 23.1712 6.70263 23.2955 6.82797 23.3866C6.9533 23.4776 7.10164 23.5317 7.25616 23.5427C7.41067 23.5537 7.56518 23.5212 7.70217 23.4489L13.5945 20.3509L19.4868 23.4489C19.6477 23.5345 19.8345 23.563 20.0135 23.5319C20.465 23.4541 20.7686 23.026 20.6907 22.5745L19.5647 16.0128L24.331 11.3658C24.4607 11.2387 24.5463 11.0726 24.5723 10.891C24.6423 10.437 24.3258 10.0166 23.8717 9.94918Z" fill="white"/>
</svg>

