<svg width="27" height="28" viewBox="0 0 27 28" fill="none" xmlns="http://www.w3.org/2000/svg">
<g opacity="0.5">
<path d="M20.1662 11.5672L16.8451 13.2278L12.417 9.9067L11.31 15.9954L15.1846 19.3165L15.7381 24.2981M20.1662 9.9067V24.2981M11.31 19.3165L9.09589 24.2981M9.64941 9.9067C7.98887 11.0137 6.88184 13.7813 6.88184 13.7813L9.09589 14.8883M13.524 7.69264C14.1112 7.69264 14.6744 7.45938 15.0896 7.04416C15.5048 6.62894 15.7381 6.06579 15.7381 5.47859C15.7381 4.89138 15.5048 4.32823 15.0896 3.91301C14.6744 3.49779 14.1112 3.26453 13.524 3.26453C12.9368 3.26453 12.3737 3.49779 11.9584 3.91301C11.5432 4.32823 11.31 4.89138 11.31 5.47859C11.31 6.06579 11.5432 6.62894 11.9584 7.04416C12.3737 7.45938 12.9368 7.69264 13.524 7.69264Z" stroke="white" stroke-width="2.21406" stroke-linecap="round" stroke-linejoin="round"/>
</g>
</svg>
