<svg width="27" height="22" viewBox="0 0 27 22" fill="none" xmlns="http://www.w3.org/2000/svg">
<path d="M26.6483 2.84659C25.6603 3.27999 24.6075 3.56727 23.5099 3.70675C24.639 3.03257 25.5009 1.97315 25.906 0.696188C24.8532 1.32387 23.6909 1.76724 22.4521 2.01466C21.4524 0.950252 20.0277 0.291016 18.4734 0.291016C15.4579 0.291016 13.0302 2.73866 13.0302 5.73926C13.0302 6.171 13.0667 6.58614 13.1564 6.98135C8.62807 6.76049 4.62118 4.59016 1.92944 1.28402C1.4595 2.09935 1.18385 3.03257 1.18385 4.0372C1.18385 5.92358 2.15527 7.59575 3.60326 8.56384C2.72816 8.54724 1.86966 8.29318 1.14234 7.89298C1.14234 7.90959 1.14234 7.93118 1.14234 7.95276C1.14234 10.5997 3.03038 12.7982 5.50625 13.3047C5.06288 13.4259 4.57966 13.484 4.07818 13.484C3.72946 13.484 3.37743 13.4641 3.04698 13.391C3.75271 15.5481 5.75533 17.1339 8.13655 17.1854C6.28338 18.635 3.93039 19.5085 1.38312 19.5085C0.93643 19.5085 0.50801 19.4886 0.0795898 19.4338C2.49236 20.9897 5.35182 21.8781 8.43545 21.8781C18.4585 21.8781 23.9383 13.5754 23.9383 6.37857C23.9383 6.13779 23.93 5.90531 23.9184 5.6745C24.9994 4.90733 25.9077 3.94919 26.6483 2.84659Z" fill="white"/>
</svg>
