<svg width="28" height="20" viewBox="0 0 28 20" fill="none" xmlns="http://www.w3.org/2000/svg">
<path d="M26.2286 2.71184C25.5079 1.4299 24.7258 1.1941 23.1333 1.10443C21.5425 0.996495 17.5423 0.95166 14.0767 0.95166C10.6045 0.95166 6.60263 0.996495 5.01349 1.10277C3.42435 1.1941 2.64057 1.42824 1.91325 2.71184C1.17099 3.99212 0.789062 6.19732 0.789062 10.0797C0.789062 10.083 0.789062 10.0846 0.789062 10.0846C0.789062 10.088 0.789062 10.0896 0.789062 10.0896V10.093C0.789062 13.9587 1.17099 16.1805 1.91325 17.4475C2.64057 18.7294 3.42268 18.9619 5.01183 19.0699C6.60263 19.1628 10.6045 19.2176 14.0767 19.2176C17.5423 19.2176 21.5425 19.1628 23.135 19.0715C24.7275 18.9636 25.5096 18.7311 26.2303 17.4492C26.9792 16.1822 27.3578 13.9604 27.3578 10.0946C27.3578 10.0946 27.3578 10.0896 27.3578 10.0863C27.3578 10.0863 27.3578 10.083 27.3578 10.0813C27.3578 6.19732 26.9792 3.99212 26.2286 2.71184ZM10.7523 15.0663V5.10302L19.055 10.0846L10.7523 15.0663Z" fill="white"/>
</svg>
